<?xml version="1.0" standalone="no"?>
<!DOCTYPE svg PUBLIC "-//W3C//DTD SVG 20010904//EN"
 "http://www.w3.org/TR/2001/REC-SVG-20010904/DTD/svg10.dtd">
<svg version="1.0" xmlns="http://www.w3.org/2000/svg"
 width="426.000000pt" height="513.000000pt" viewBox="0 0 426.000000 513.000000"
 preserveAspectRatio="xMidYMid meet">

<g transform="translate(0.000000,513.000000) scale(0.100000,-0.100000)"
fill="#000000" stroke="none">
<path d="M2455 4059 c-17 -76 -35 -174 -35 -195 0 -23 2 -24 76 -24 l76 0 -7
38 c-8 49 -63 167 -86 188 -17 15 -18 15 -24 -7z"/>
<path d="M2585 4063 c28 -67 44 -116 55 -165 l13 -58 99 0 c54 0 98 4 98 9 0
18 -89 118 -141 158 -51 38 -110 73 -125 73 -3 0 -3 -8 1 -17z"/>
<path d="M2829 4024 c23 -27 63 -79 87 -116 l46 -68 114 0 c63 0 114 4 114 9
0 26 -284 188 -380 216 -21 7 -19 2 19 -41z"/>
<path d="M3076 4042 c5 -5 39 -29 75 -55 37 -25 92 -69 122 -97 l56 -51 63 3
63 3 -65 43 c-36 24 -120 70 -187 103 -116 56 -149 69 -127 51z"/>
<path d="M2396 3748 c-7 -23 -86 -433 -86 -445 0 -10 37 -13 152 -13 l151 0
-7 183 c-4 100 -10 205 -14 232 l-7 50 -93 3 c-69 2 -93 -1 -96 -10z"/>
<path d="M2674 3708 c7 -58 25 -333 26 -385 l0 -33 180 0 181 0 -7 38 c-13 72
-76 278 -107 352 l-32 75 -124 3 -123 3 6 -53z"/>
<path d="M3015 3743 c32 -73 108 -319 118 -379 l12 -74 197 0 c171 0 198 2
198 15 0 60 -133 318 -209 406 l-42 49 -141 0 c-130 0 -140 -1 -133 -17z"/>
<path d="M3410 3754 c0 -3 11 -20 24 -37 41 -55 112 -198 156 -314 l43 -113
134 0 c100 0 133 3 133 13 0 21 -79 158 -138 240 -30 42 -86 109 -124 147
l-69 70 -79 0 c-44 0 -80 -3 -80 -6z"/>
<path d="M3315 3193 l-150 -3 0 -280 0 -280 196 0 c195 0 197 0 203 23 16 60
28 336 18 430 -6 53 -14 101 -17 107 -3 5 -27 9 -53 8 -26 -1 -114 -4 -197 -5z"/>
<path d="M3654 3168 c3 -18 9 -147 13 -285 l6 -253 152 0 152 0 7 38 c11 66 6
305 -8 382 -8 41 -21 92 -29 113 l-16 37 -142 0 -141 0 6 -32z"/>
<path d="M2280 3170 c0 -10 -22 -133 -50 -273 -27 -140 -50 -257 -50 -260 0
-4 87 -7 194 -7 l194 0 6 33 c12 68 36 354 36 439 l0 88 -165 0 c-157 0 -165
-1 -165 -20z"/>
<path d="M2690 3068 c0 -68 -7 -186 -15 -263 -8 -77 -15 -148 -15 -157 0 -17
16 -18 204 -18 202 0 204 0 211 23 10 32 19 416 11 481 l-7 56 -195 0 -194 0
0 -122z"/>
<path d="M275 2533 c-4 -10 -10 -83 -12 -163 -6 -154 12 -302 42 -361 l16 -29
132 0 132 0 0 258 c1 141 4 269 8 285 l7 27 -159 0 c-142 0 -160 -2 -166 -17z"/>
<path d="M686 2541 c-23 -37 -31 -440 -10 -533 l6 -28 199 0 199 0 0 285 0
285 -194 0 c-107 0 -197 -4 -200 -9z"/>
<path d="M1176 2541 c-23 -37 -31 -440 -10 -533 l6 -28 188 0 187 0 7 153 c6
143 19 295 32 380 l6 37 -206 0 c-112 0 -207 -4 -210 -9z"/>
<path d="M1676 2533 c-18 -58 -51 -500 -41 -534 6 -18 17 -19 164 -19 l158 0
53 273 c29 149 55 278 58 285 3 9 -39 12 -191 12 -178 0 -196 -2 -201 -17z"/>
<path d="M355 1863 c18 -74 142 -257 254 -375 l63 -68 84 0 84 0 -34 53 c-49
77 -104 188 -151 307 l-42 105 -132 3 -133 3 7 -28z"/>
<path d="M713 1853 c9 -56 128 -288 186 -365 l52 -68 143 0 144 0 -28 73 c-33
85 -84 258 -100 340 l-11 57 -196 0 -196 0 6 -37z"/>
<path d="M1193 1852 c11 -64 68 -253 104 -344 l35 -88 125 0 c114 0 124 1 119
18 -8 24 -26 292 -26 380 l0 72 -181 0 -182 0 6 -38z"/>
<path d="M1634 1866 c-6 -25 12 -354 22 -413 l6 -33 94 0 93 0 7 38 c3 20 24
124 45 231 22 107 39 196 39 198 0 2 -67 3 -150 3 l-150 0 -6 -24z"/>
<path d="M1100 1330 l-45 -5 50 -37 c62 -47 175 -107 278 -147 43 -17 81 -31
84 -31 4 0 -16 24 -44 53 -28 28 -70 79 -93 112 l-41 60 -72 0 c-40 0 -92 -2
-117 -5z"/>
<path d="M1390 1329 c0 -17 138 -152 187 -182 23 -14 53 -29 68 -33 l27 -7
-22 43 c-12 23 -30 74 -40 113 l-18 72 -101 3 c-71 2 -101 -1 -101 -9z"/>
<path d="M1684 1300 c8 -52 47 -139 76 -168 12 -13 24 -22 25 -20 6 6 45 186
45 208 0 18 -7 20 -76 20 l-77 0 7 -40z"/>
<path d="M834 1304 c46 -31 345 -178 351 -172 2 2 -31 27 -73 55 -42 28 -102
72 -133 97 -54 44 -59 46 -120 46 l-64 0 39 -26z"/>
</g>
</svg>
