<?xml version="1.0" standalone="no"?>
<!DOCTYPE svg PUBLIC "-//W3C//DTD SVG 20010904//EN"
 "http://www.w3.org/TR/2001/REC-SVG-20010904/DTD/svg10.dtd">
<svg version="1.0" xmlns="http://www.w3.org/2000/svg"
 width="512.000000pt" height="512.000000pt" viewBox="0 0 512.000000 512.000000"
 preserveAspectRatio="xMidYMid meet">

<g transform="translate(0.000000,512.000000) scale(0.100000,-0.100000)"
fill="#000000" stroke="none">
<path d="M1216 4988 c-7 -21 -19 -72 -22 -88 -2 -8 -8 -42 -14 -75 -6 -33 -14
-82 -18 -110 -4 -27 -11 -55 -14 -61 -4 -6 -10 -39 -14 -75 -3 -35 -9 -68 -12
-74 -4 -5 -10 -32 -14 -60 -20 -118 -28 -161 -33 -180 -3 -11 -9 -45 -15 -75
-15 -90 -28 -153 -34 -180 -4 -14 -9 -47 -12 -74 -2 -27 -9 -57 -14 -67 -6
-10 -10 -34 -10 -54 0 -20 -4 -44 -9 -53 -5 -10 -12 -44 -16 -76 -3 -33 -10
-66 -14 -75 -4 -9 -9 -34 -10 -55 -1 -22 -5 -44 -9 -50 -3 -6 -10 -33 -14 -61
-12 -78 -15 -96 -28 -155 -6 -30 -15 -77 -20 -105 -5 -27 -15 -86 -23 -130 -9
-44 -18 -96 -21 -115 -4 -19 -10 -51 -15 -70 -14 -56 -30 -173 -25 -182 6 -10
495 -10 510 0 11 7 21 45 30 117 3 22 9 49 14 60 5 11 11 40 13 65 3 25 7 56
11 70 4 14 9 48 12 75 3 28 10 54 15 59 5 6 9 22 9 37 0 15 7 29 16 33 9 3
155 6 326 6 303 0 311 0 384 25 225 75 384 204 506 408 47 78 97 230 132 396
38 181 49 287 44 427 -4 126 -5 131 -41 199 -93 177 -248 300 -407 325 -101
15 -1140 13 -1144 -2z m974 -348 c47 -24 76 -63 89 -122 11 -47 5 -99 -24
-233 -9 -38 -22 -99 -29 -135 -96 -454 -97 -459 -155 -522 -18 -21 -57 -51
-86 -68 l-52 -30 -219 0 c-121 0 -225 4 -232 9 -11 7 -11 16 -2 52 7 24 14 58
16 74 2 17 8 46 13 65 8 31 43 211 56 295 3 17 9 46 14 65 5 19 15 67 22 105
6 39 15 88 20 110 4 22 10 56 14 75 20 110 47 233 55 255 l10 25 225 0 c205 0
229 -2 265 -20z"/>
<path d="M2913 4458 c-13 -16 -38 -231 -30 -252 5 -12 21 -16 66 -16 95 0 258
-19 376 -45 439 -95 799 -333 1009 -668 46 -74 62 -107 101 -202 36 -90 59
-178 76 -300 12 -88 5 -295 -11 -326 -9 -16 -7 -19 14 -19 19 0 25 6 29 33 3
17 10 52 16 77 12 54 13 267 1 330 -17 92 -20 106 -31 145 -55 188 -116 323
-218 476 -273 411 -711 696 -1172 763 -129 19 -213 20 -226 4z"/>
<path d="M2876 4044 c-3 -9 -6 -29 -6 -45 0 -17 -4 -38 -9 -47 -4 -9 -11 -38
-13 -64 l-6 -48 71 0 70 0 -7 40 c-10 63 -68 180 -89 180 -3 0 -8 -7 -11 -16z"/>
<path d="M3010 4053 c0 -5 7 -17 15 -27 8 -11 15 -30 15 -42 0 -13 4 -25 9
-28 5 -4 12 -29 16 -57 4 -28 13 -53 19 -55 7 -3 53 -4 102 -2 l89 3 -70 74
c-84 89 -196 166 -195 134z"/>
<path d="M3230 4045 c0 -2 14 -19 31 -37 16 -18 51 -63 75 -100 l46 -68 111 0
112 1 -30 25 c-77 65 -345 204 -345 179z"/>
<path d="M3576 3981 c33 -22 84 -62 116 -90 52 -47 60 -51 107 -51 28 0 51 3
51 8 0 13 -301 172 -326 172 -3 0 20 -18 52 -39z"/>
<path d="M2820 3730 c0 -11 -5 -39 -10 -62 -17 -71 -61 -286 -72 -353 -3 -19
3 -20 142 -20 l145 0 -3 155 c-1 85 -8 188 -14 228 l-12 72 -88 0 c-81 0 -88
-2 -88 -20z"/>
<path d="M3095 3741 c-3 -6 -1 -29 4 -53 5 -24 12 -119 15 -211 3 -93 8 -173
12 -178 6 -10 337 -13 347 -2 4 3 3 11 -2 17 -4 6 -11 29 -14 51 -4 22 -16 69
-27 105 -11 36 -28 90 -37 120 -9 30 -21 59 -25 64 -4 6 -8 16 -8 24 0 8 -9
27 -21 43 -20 29 -20 29 -129 29 -60 0 -111 -4 -115 -9z"/>
<path d="M3440 3741 c0 -5 12 -40 26 -77 14 -38 33 -91 41 -119 8 -27 21 -70
29 -94 8 -25 14 -57 14 -72 0 -15 5 -31 10 -34 6 -3 10 -17 10 -31 l0 -24 188
0 c104 0 191 2 194 5 26 26 -172 396 -236 441 -15 10 -53 14 -148 14 -71 0
-128 -4 -128 -9z"/>
<path d="M3830 3746 c0 -3 6 -11 13 -18 34 -35 133 -230 177 -348 7 -19 18
-47 24 -62 l11 -28 128 0 128 0 -7 23 c-25 82 -153 267 -255 370 l-67 67 -76
0 c-42 0 -76 -2 -76 -4z"/>
<path d="M2712 3178 c-7 -7 -12 -27 -12 -46 0 -18 -4 -52 -10 -75 -5 -23 -19
-91 -31 -152 -12 -60 -25 -130 -30 -155 -5 -25 -12 -62 -15 -82 l-7 -38 186 0
c138 0 188 3 194 13 13 22 47 496 37 530 -5 15 -21 17 -153 17 -101 0 -151 -4
-159 -12z"/>
<path d="M3120 3182 c-5 -2 -8 -13 -5 -25 5 -22 -9 -288 -23 -445 l-7 -82 200
2 199 3 9 35 c13 56 14 487 1 500 -11 11 -346 21 -374 12z"/>
<path d="M3590 2907 l0 -277 192 2 192 3 9 35 c14 62 14 472 -1 498 -13 23
-14 23 -203 20 l-189 -3 0 -278z"/>
<path d="M4077 3183 c-2 -5 1 -51 7 -103 6 -52 11 -175 11 -273 l0 -177 146 0
c144 0 147 0 153 23 3 12 6 90 6 172 0 156 -17 280 -45 335 l-16 30 -129 0
c-71 0 -131 -3 -133 -7z"/>
<path d="M550 2488 c-18 -76 -16 -374 3 -468 33 -167 127 -386 236 -549 297
-445 787 -739 1277 -768 104 -6 112 -5 117 13 10 34 29 234 24 248 -4 9 -41
15 -134 19 -361 18 -699 135 -974 338 -88 65 -243 228 -301 315 -101 152 -180
344 -194 469 -3 22 -9 51 -14 65 -10 27 -6 285 5 338 6 28 5 32 -13 32 -15 0
-22 -11 -32 -52z"/>
<path d="M703 2513 c-14 -49 -9 -353 6 -423 24 -111 23 -110 170 -110 l126 0
0 243 c1 133 4 259 8 280 l8 37 -155 0 -156 0 -7 -27z"/>
<path d="M1115 2530 c-23 -37 -31 -460 -10 -527 7 -23 9 -23 201 -23 l194 0 0
280 0 280 -189 0 c-110 0 -192 -4 -196 -10z"/>
<path d="M1605 2529 c-27 -42 -30 -504 -4 -535 9 -11 47 -14 189 -14 l177 0 7
153 c6 144 19 286 32 370 l6 37 -201 0 c-130 0 -202 -4 -206 -11z"/>
<path d="M2106 2531 c-11 -18 -35 -277 -38 -411 l-3 -135 153 -3 c176 -3 160
-13 182 118 7 41 16 95 20 120 9 50 45 224 58 283 l9 37 -188 0 c-103 0 -190
-4 -193 -9z"/>
<path d="M2617 2413 c-3 -5 -22 -94 -42 -198 -19 -105 -42 -224 -50 -265 -15
-73 -96 -504 -115 -605 -20 -108 -92 -484 -105 -550 -7 -38 -23 -122 -35 -185
-35 -187 -49 -259 -71 -368 -11 -56 -17 -111 -14 -122 6 -19 16 -20 254 -20
199 0 251 3 260 14 9 11 49 208 98 484 l6 32 301 0 c331 1 369 5 501 60 163
67 296 178 400 334 70 106 97 172 139 344 45 186 54 237 68 380 23 237 -17
357 -167 508 -62 63 -99 90 -160 120 l-80 39 -592 3 c-325 1 -594 -1 -596 -5z
m991 -360 c49 -32 82 -93 82 -153 0 -61 -147 -736 -170 -778 -25 -47 -43 -68
-104 -117 l-49 -40 -244 -3 c-236 -3 -243 -2 -243 17 0 10 25 147 56 303 30
155 73 375 95 488 22 113 45 229 51 258 l11 52 237 0 236 0 42 -27z"/>
<path d="M785 1858 c24 -78 146 -257 248 -365 l70 -73 73 0 c41 0 74 2 74 4 0
2 -17 33 -38 67 -49 80 -110 211 -148 312 l-29 77 -128 0 -128 0 6 -22z"/>
<path d="M1130 1878 c0 -2 9 -28 20 -58 38 -101 131 -277 179 -337 l47 -58
137 -3 c86 -2 137 1 137 7 0 6 -9 33 -20 61 -18 45 -34 92 -69 205 -6 17 -15
59 -22 95 -6 36 -13 71 -15 78 -3 9 -51 12 -199 12 -107 0 -195 -1 -195 -2z"/>
<path d="M1620 1859 c0 -37 81 -305 119 -391 l20 -48 116 0 c97 0 115 2 115
15 0 9 -5 93 -11 188 -6 95 -11 190 -13 212 l-2 40 -172 3 c-170 2 -172 2
-172 -19z"/>
<path d="M2063 1863 c-7 -18 13 -383 23 -420 6 -22 12 -23 94 -23 l87 0 17 98
c9 53 21 111 26 127 5 17 11 46 14 65 3 19 10 53 16 75 5 22 10 52 10 68 l0
27 -140 0 c-123 0 -141 -2 -147 -17z"/>
<path d="M1280 1294 c64 -41 260 -137 267 -131 2 3 -31 29 -74 60 -43 30 -89
66 -102 81 -21 23 -32 26 -85 26 l-61 -1 55 -35z"/>
<path d="M1496 1318 c7 -19 129 -92 229 -139 81 -38 145 -62 145 -54 0 2 -15
18 -32 37 -39 41 -54 59 -96 121 l-33 47 -109 0 c-84 0 -108 -3 -104 -12z"/>
<path d="M1829 1312 c27 -51 231 -216 246 -200 3 2 -6 33 -19 69 -13 35 -30
83 -37 107 l-12 42 -94 0 c-88 0 -93 -1 -84 -18z"/>
<path d="M2114 1290 c7 -46 51 -144 73 -161 19 -17 31 1 38 61 3 25 10 59 15
76 20 61 17 64 -61 64 l-72 0 7 -40z"/>
</g>
</svg>
